<svg width="20" height="20" viewBox="0 0 20 20" fill="none" xmlns="http://www.w3.org/2000/svg">
<path d="M14.9485 13.9545C16.2614 12.6409 16.9989 10.8597 16.9989 9.00251C16.9989 7.14529 16.2614 5.36409 14.9485 4.05051C14.2985 3.40042 13.5268 2.88474 12.6774 2.53291C11.8281 2.18108 10.9178 2 9.99848 2C9.07917 2 8.16886 2.18108 7.31953 2.53291C6.47021 2.88474 5.6985 3.40042 5.04848 4.05051C3.73557 5.36409 2.99805 7.14529 2.99805 9.00251C2.99805 10.8597 3.73557 12.6409 5.04848 13.9545L6.56948 15.4535L8.61248 17.4385L8.74548 17.5565C9.52048 18.1845 10.6555 18.1445 11.3855 17.4385L13.8205 15.0685L14.9485 13.9545ZM9.99848 11.9995C9.20283 11.9995 8.43977 11.6834 7.87716 11.1208C7.31455 10.5582 6.99848 9.79515 6.99848 8.99951C6.99848 8.20386 7.31455 7.44079 7.87716 6.87818C8.43977 6.31558 9.20283 5.99951 9.99848 5.99951C10.7941 5.99951 11.5572 6.31558 12.1198 6.87818C12.6824 7.44079 12.9985 8.20386 12.9985 8.99951C12.9985 9.79515 12.6824 10.5582 12.1198 11.1208C11.5572 11.6834 10.7941 11.9995 9.99848 11.9995Z" fill="#666766"/>
</svg>
